<?xml version="1.0" encoding="utf-8"?>
<!-- Generator: Adobe Illustrator 25.1.0, SVG Export Plug-In . SVG Version: 6.00 Build 0)  -->
<svg version="1.1" id="Layer_1" xmlns="http://www.w3.org/2000/svg" xmlns:xlink="http://www.w3.org/1999/xlink" x="0px" y="0px"
	 viewBox="0 0 630 472" style="enable-background:new 0 0 630 472;" xml:space="preserve">
<path d="M2,402.01C2,291.34,2,180.66,2,69.99c0.53-1.88,1.18-3.74,1.58-5.65c3.49-16.62,11.21-30.89,23.78-42.37
	C43.27,7.44,62.19,1.3,83.59,1.31c152.11,0.1,304.22,0.05,456.32,0.06c4.83,0,9.68-0.15,14.49,0.24
	c28.92,2.35,50.85,15.96,64.29,41.76c4.3,8.25,6.27,17.71,9.31,26.62c0,110.67,0,221.35,0,332.02c-0.53,1.89-1.18,3.75-1.58,5.67
	c-3.51,16.61-11.21,30.87-23.79,42.36c-15.91,14.53-34.83,20.67-56.23,20.66c-154.44-0.09-308.87-0.05-463.31-0.06
	c-2.66,0-5.34-0.01-7.99-0.24c-28.48-2.53-50.21-15.92-63.56-41.3C7.13,420.7,5.11,411.07,2,402.01z M69.97,428.34
	c0.02,0.6,0.05,1.2,0.07,1.8c5,0.6,10,1.7,15.01,1.71c83.32,0.11,166.65,0.08,249.97,0.08c70.16,0,140.32,0.04,210.47-0.08
	c4.83-0.01,9.65-1.14,15.92-1.93c-57.43-65.64-113.68-129.91-169.99-194.27c-1.32,0.94-2.17,1.46-2.92,2.1
	c-19.95,17.11-39.89,34.25-59.85,51.36c-8.05,6.9-18.96,7.07-26.95,0.27c-13.95-11.85-27.79-23.83-41.69-35.73
	c-7.02-6.01-14.08-11.97-21.32-18.13C182.16,300.11,126.07,364.23,69.97,428.34z M72.48,41.53
	c81.6,69.94,161.97,138.84,242.53,207.89c80.74-69.21,161.01-138.02,242.54-207.91c-4.7-0.61-7.9-1.39-11.09-1.39
	c-154.3-0.06-308.6-0.06-462.9,0.01C80.35,40.13,77.15,40.91,72.48,41.53z M586.56,399.38c0.53-0.19,1.06-0.37,1.59-0.56
	c0.28-3.45,0.8-6.89,0.8-10.34c0.05-75.33,0.04-150.66,0.04-225.99c0-26.67,0.08-53.33-0.08-79.99c-0.03-4.47-1.05-8.94-1.81-14.89
	c-56.17,48.14-110.93,95.07-166.2,142.43C476.3,273.36,531.43,336.37,586.56,399.38z M40.97,398.74c0.82,0.21,1.64,0.41,2.46,0.62
	c55.11-63.01,110.23-126.01,165.63-189.35c-55.24-47.35-109.98-94.27-165.6-141.94c-0.85,3.31-1.95,5.62-1.97,7.95
	C40.47,183.59,41.26,291.16,40.97,398.74z"/>
</svg>
